<svg xmlns="http://www.w3.org/2000/svg" viewBox="0 0 6000 3810">
	<rect fill="#6E2381" width="6000" height="3810"/>
	<rect fill="#2E57A4" width="6000" height="3175"/>
	<rect fill="#028137" width="6000" height="2540"/>
	<rect fill="#FFED00" width="6000" height="1905"/>
	<rect fill="#F18815" width="6000" height="1270"/>
	<rect fill="#E30613" width="6000" height="635"/>

	<polygon points="-1,960 950,1905 -1,2850" fill="#ffffff"/>
	<polygon points="-1,960 -1,480 1420,1905 -1,3330 -1,2850 950,1905" fill="#ffafc8"/>
	<polygon points="-1,480 -1,0 1912,1905 -1,3810 -1,3330 1420,1905 -1,480" fill="#74d7ee"/>
	<polygon points="-1,0 1912,1905 -1,3810 480,3810 2384,1905 480,0" fill="#613915"/>
	<polygon points="480,0 960,0 2864,1905 960,3810 480,3810 2384 1905 480,0" fill="#000000"/>
</svg>
